<svg width="1440" height="900" viewBox="0 0 1440 900" fill="none" xmlns="http://www.w3.org/2000/svg">
  <rect width="1440" height="900" rx="32" fill="#F4F7FB"/>
  <rect x="36" y="36" width="260" height="828" rx="28" fill="#FFFFFF"/>
  <rect x="74" y="88" width="70" height="70" rx="20" fill="#DCE9FF"/>
  <rect x="160" y="95" width="90" height="18" rx="9" fill="#1D4ED8" fill-opacity="0.18"/>
  <rect x="160" y="123" width="64" height="14" rx="7" fill="#94A3B8" fill-opacity="0.35"/>
  <rect x="74" y="220" width="120" height="24" rx="12" fill="#E8F0FF"/>
  <circle cx="88" cy="288" r="9" fill="#22C55E"/>
  <rect x="108" y="279" width="88" height="18" rx="9" fill="#0F172A" fill-opacity="0.14"/>
  <rect x="74" y="336" width="184" height="42" rx="14" fill="#F8FAFC" stroke="#E2E8F0"/>
  <rect x="74" y="392" width="128" height="38" rx="12" fill="#2F6BFF"/>
  <rect x="326" y="36" width="1078" height="96" rx="28" fill="#FFFFFF"/>
  <rect x="368" y="66" width="180" height="22" rx="11" fill="#0F172A" fill-opacity="0.16"/>
  <rect x="368" y="98" width="240" height="16" rx="8" fill="#94A3B8" fill-opacity="0.35"/>
  <rect x="1174" y="60" width="94" height="40" rx="14" fill="#EEF2FF"/>
  <rect x="1284" y="60" width="90" height="40" rx="14" fill="#2F6BFF"/>
  <rect x="326" y="156" width="360" height="232" rx="28" fill="#FFFFFF"/>
  <rect x="356" y="184" width="96" height="18" rx="9" fill="#0F172A" fill-opacity="0.14"/>
  <rect x="570" y="180" width="86" height="28" rx="14" fill="#EEF2FF"/>
  <rect x="356" y="236" width="88" height="14" rx="7" fill="#94A3B8" fill-opacity="0.35"/>
  <rect x="356" y="254" width="54" height="44" rx="14" fill="#E2E8F0"/>
  <rect x="462" y="236" width="88" height="14" rx="7" fill="#94A3B8" fill-opacity="0.35"/>
  <rect x="462" y="254" width="54" height="44" rx="14" fill="#E2E8F0"/>
  <rect x="568" y="236" width="88" height="14" rx="7" fill="#94A3B8" fill-opacity="0.35"/>
  <rect x="568" y="254" width="54" height="44" rx="14" fill="#E2E8F0"/>
  <rect x="356" y="328" width="122" height="38" rx="12" fill="#2F6BFF"/>
  <rect x="706" y="156" width="698" height="232" rx="28" fill="#FFFFFF"/>
  <rect x="736" y="184" width="120" height="18" rx="9" fill="#0F172A" fill-opacity="0.14"/>
  <rect x="1264" y="180" width="110" height="28" rx="14" fill="#EEF2FF"/>
  <rect x="736" y="230" width="300" height="128" rx="24" fill="#F8FAFC" stroke="#E2E8F0"/>
  <rect x="756" y="252" width="80" height="16" rx="8" fill="#0F172A" fill-opacity="0.14"/>
  <rect x="756" y="284" width="140" height="14" rx="7" fill="#94A3B8" fill-opacity="0.35"/>
  <rect x="756" y="312" width="120" height="14" rx="7" fill="#94A3B8" fill-opacity="0.22"/>
  <circle cx="970" cy="292" r="44" fill="#DCE9FF"/>
  <rect x="1060" y="230" width="314" height="128" rx="24" fill="#F8FAFC" stroke="#E2E8F0"/>
  <rect x="1080" y="252" width="80" height="16" rx="8" fill="#0F172A" fill-opacity="0.14"/>
  <rect x="1080" y="284" width="140" height="14" rx="7" fill="#94A3B8" fill-opacity="0.35"/>
  <rect x="1080" y="312" width="120" height="14" rx="7" fill="#94A3B8" fill-opacity="0.22"/>
  <circle cx="1294" cy="292" r="44" fill="#E7F7EC"/>
  <rect x="326" y="410" width="1078" height="454" rx="28" fill="#FFFFFF"/>
  <rect x="356" y="438" width="100" height="18" rx="9" fill="#0F172A" fill-opacity="0.14"/>
  <rect x="1290" y="434" width="84" height="28" rx="14" fill="#EEF2FF"/>
  <rect x="356" y="492" width="1018" height="26" rx="13" fill="#F8FAFC"/>
  <rect x="356" y="534" width="420" height="16" rx="8" fill="#94A3B8" fill-opacity="0.35"/>
  <rect x="356" y="566" width="300" height="16" rx="8" fill="#94A3B8" fill-opacity="0.22"/>
  <rect x="356" y="614" width="1018" height="26" rx="13" fill="#F8FAFC"/>
  <rect x="356" y="656" width="380" height="16" rx="8" fill="#94A3B8" fill-opacity="0.35"/>
  <rect x="356" y="688" width="340" height="16" rx="8" fill="#94A3B8" fill-opacity="0.22"/>
  <rect x="356" y="736" width="1018" height="26" rx="13" fill="#F8FAFC"/>
  <rect x="356" y="778" width="460" height="16" rx="8" fill="#94A3B8" fill-opacity="0.35"/>
</svg>
