<svg width="1440" height="900" viewBox="0 0 1440 900" fill="none" xmlns="http://www.w3.org/2000/svg">
  <rect width="1440" height="900" rx="32" fill="#F4F7FB"/>
  <rect x="48" y="48" width="1344" height="804" rx="30" fill="#FFFFFF"/>
  <rect x="92" y="92" width="160" height="22" rx="11" fill="#0F172A" fill-opacity="0.14"/>
  <rect x="1118" y="84" width="196" height="36" rx="14" fill="#2F6BFF"/>
  <rect x="92" y="152" width="394" height="308" rx="28" fill="#F8FAFC" stroke="#E2E8F0"/>
  <rect x="120" y="180" width="140" height="18" rx="9" fill="#0F172A" fill-opacity="0.14"/>
  <rect x="120" y="214" width="212" height="14" rx="7" fill="#94A3B8" fill-opacity="0.35"/>
  <rect x="120" y="256" width="88" height="14" rx="7" fill="#94A3B8" fill-opacity="0.35"/>
  <rect x="120" y="278" width="64" height="36" rx="12" fill="#FFFFFF"/>
  <rect x="232" y="256" width="88" height="14" rx="7" fill="#94A3B8" fill-opacity="0.35"/>
  <rect x="232" y="278" width="64" height="36" rx="12" fill="#FFFFFF"/>
  <rect x="344" y="256" width="88" height="14" rx="7" fill="#94A3B8" fill-opacity="0.35"/>
  <rect x="344" y="278" width="64" height="36" rx="12" fill="#FFFFFF"/>
  <rect x="120" y="352" width="108" height="34" rx="12" fill="#E2E8F0"/>
  <rect x="506" y="152" width="394" height="308" rx="28" fill="#F8FAFC" stroke="#E2E8F0"/>
  <rect x="534" y="180" width="120" height="18" rx="9" fill="#0F172A" fill-opacity="0.14"/>
  <rect x="534" y="214" width="188" height="14" rx="7" fill="#94A3B8" fill-opacity="0.35"/>
  <rect x="534" y="256" width="152" height="92" rx="20" fill="#FFFFFF"/>
  <rect x="700" y="256" width="152" height="92" rx="20" fill="#FFFFFF"/>
  <rect x="534" y="370" width="108" height="34" rx="12" fill="#2F6BFF"/>
  <rect x="920" y="152" width="394" height="308" rx="28" fill="#F8FAFC" stroke="#E2E8F0" stroke-dasharray="10 10"/>
  <rect x="1096" y="238" width="42" height="42" rx="21" fill="#2F6BFF"/>
  <rect x="1030" y="298" width="174" height="18" rx="9" fill="#0F172A" fill-opacity="0.14"/>
  <rect x="986" y="340" width="262" height="14" rx="7" fill="#94A3B8" fill-opacity="0.28"/>
  <rect x="92" y="500" width="1222" height="306" rx="28" fill="#F8FAFC" stroke="#E2E8F0"/>
  <rect x="124" y="532" width="164" height="20" rx="10" fill="#0F172A" fill-opacity="0.14"/>
  <rect x="124" y="582" width="1158" height="22" rx="11" fill="#FFFFFF"/>
  <rect x="124" y="628" width="600" height="16" rx="8" fill="#94A3B8" fill-opacity="0.35"/>
  <rect x="124" y="664" width="508" height="16" rx="8" fill="#94A3B8" fill-opacity="0.22"/>
  <rect x="124" y="718" width="1158" height="22" rx="11" fill="#FFFFFF"/>
  <rect x="124" y="764" width="560" height="16" rx="8" fill="#94A3B8" fill-opacity="0.35"/>
</svg>
